<svg width="33" height="32" fill="none" xmlns="http://www.w3.org/2000/svg"><path d="M18.901 18.76c-.87 0-1.721-.245-2.445-.704a4.234 4.234 0 01-1.62-1.876 3.986 3.986 0 01-.25-2.415 4.12 4.12 0 011.204-2.14 4.477 4.477 0 012.253-1.145 4.616 4.616 0 012.542.238 4.36 4.36 0 011.975 1.54c.483.687.741 1.495.741 2.322a4.077 4.077 0 01-1.288 2.956A4.52 4.52 0 0118.9 18.76zm0-6.967a3.05 3.05 0 00-1.63.47 2.823 2.823 0 00-1.08 1.25 2.66 2.66 0 00-.167 1.61 2.74 2.74 0 00.803 1.428c.41.39.933.655 1.502.763a3.073 3.073 0 001.695-.16c.536-.21.994-.567 1.316-1.026a2.69 2.69 0 00.495-1.548c0-.739-.31-1.448-.86-1.97a3.013 3.013 0 00-2.074-.817z" fill="#664B42"/><path fill-rule="evenodd" clip-rule="evenodd" d="M4.38 24.18l3.057-3.927 1.575 1.891 2.236-2.88 3.693 4.924v-5.867H4.38v5.858zm-.643 1.181a1.763 1.763 0 01-.237-.88v-7.04h12.32v8.8H5.26a1.764 1.764 0 01-1.523-.88zm5.299-1.813L7.46 21.657l-2.2 2.825h8.8l-2.824-3.766-2.2 2.834z" fill="#FD9F32"/><path fill-rule="evenodd" clip-rule="evenodd" d="M15.82 21.841H28.3a.725.725 0 00.723-.72V8.88a.718.718 0 00-.723-.72h-4.67l-1.236-1.837a.722.722 0 00-.6-.324H16.01a.72.72 0 00-.6.324L14.173 8.16h-4.67a.725.725 0 00-.51.211.718.718 0 00-.213.51v8.56h1.446V9.6h4.338a.726.726 0 00.6-.325L16.4 7.44h5.002l1.237 1.836a.721.721 0 00.6.324h4.337v10.801H15.821v1.44z" fill="#664B42"/></svg>