<svg width="33" height="32" fill="none" xmlns="http://www.w3.org/2000/svg"><path fill-rule="evenodd" clip-rule="evenodd" d="M7 5.426C7 5.19 7.196 5 7.438 5H10.5v.852H7.877v20.586a.7.7 0 00.214.502.741.741 0 00.517.208h15.784c.194 0 .38-.075.517-.208a.7.7 0 00.214-.502V5.852H16.75V5h8.811c.243 0 .439.19.439.426v21.012c0 .415-.17.812-.47 1.105a1.634 1.634 0 01-1.138.457H8.608c-.427 0-.836-.165-1.137-.457A1.54 1.54 0 017 26.438V5.426z" fill="#664B42"/><path fill-rule="evenodd" clip-rule="evenodd" d="M10.548 4.584a.714.714 0 01.508-.212h4.694c.038 0 .075.015.102.042a.146.146 0 01.042.103v13.475l-2.137-2.162a.429.429 0 00-.61 0l-2.136 2.162V5.098a.433.433 0 00-.431-.436h-.109l.077-.078zm5.913-.786c.188.19.294.45.294.719v14.527a.436.436 0 01-.266.403.428.428 0 01-.47-.095l-2.567-2.597-2.568 2.597a.428.428 0 01-.47.095.436.436 0 01-.265-.403V5.534H9.43a.43.43 0 01-.398-.27.44.44 0 01.093-.474l.813-.822a1.57 1.57 0 011.117-.468h4.694a1 1 0 01.71.298zm-5.405.574a.714.714 0 00-.508.212l-.077.078h.109c.238 0 .43.195.43.436v12.894l2.138-2.162a.428.428 0 01.609 0l2.137 2.162V4.517a.146.146 0 00-.042-.103.143.143 0 00-.102-.042h-4.694zm5.7 3.486V4.517c0-.27-.107-.528-.295-.72a1 1 0 00-.711-.297h-4.694c-.42 0-.821.168-1.117.468l-.813.822a.44.44 0 00-.093.475.43.43 0 00.398.269h.718v13.51a.429.429 0 00.736.308l2.567-2.597 2.568 2.597a.428.428 0 00.47.095.436.436 0 00.265-.403v-2.18h5.314a.433.433 0 00.431-.435.433.433 0 00-.43-.436h-5.315v-3.196h5.314a.433.433 0 00.431-.436.433.433 0 00-.43-.435h-5.315V8.73h5.314a.433.433 0 00.431-.436.433.433 0 00-.43-.436h-5.315zm-6.607 12.639c0-.241.193-.436.43-.436h11.49c.238 0 .431.195.431.436 0 .24-.193.435-.43.435H10.58a.433.433 0 01-.431-.435zm0 4.067c0-.24.193-.436.43-.436h11.49c.238 0 .431.195.431.436 0 .24-.193.436-.43.436H10.58a.433.433 0 01-.431-.436z" fill="#664B42"/><path fill-rule="evenodd" clip-rule="evenodd" d="M10.597 4.586a.748.748 0 01.523-.213h4.843a.15.15 0 01.105.042.144.144 0 01.043.103V18.01l-2.204-2.164a.448.448 0 00-.629 0l-2.204 2.164V5.1a.44.44 0 00-.444-.436h-.113l.08-.078zm6.1-.788c.194.191.303.45.303.72v14.546a.436.436 0 01-.274.403.45.45 0 01-.485-.095l-2.648-2.6-2.65 2.6a.45.45 0 01-.483.095.436.436 0 01-.275-.403V5.536h-.74a.445.445 0 01-.411-.269.43.43 0 01.096-.476l.838-.822c.306-.3.72-.469 1.152-.469h4.843c.275 0 .539.107.733.298z" fill="#FD9F32"/></svg>