<svg width="33" height="32" fill="none" xmlns="http://www.w3.org/2000/svg"><path fill-rule="evenodd" clip-rule="evenodd" d="M8 22.5a1 1 0 011-1h3a1 1 0 011 1V27h-1v-4.5H9V27H8v-4.5z" fill="#FD9F32"/><path fill-rule="evenodd" clip-rule="evenodd" d="M14.472 5.438a1 1 0 01.998-.938h4.568a1 1 0 01.997.922l1.213 15.54-.997.077L20.038 5.5H15.47l-.721 11.531-.998-.062.72-11.531z" fill="#664B42"/><path fill-rule="evenodd" clip-rule="evenodd" d="M29 21.5H17.5v-1H29a1 1 0 011 1v5a1 1 0 01-1 1H16v-1h13v-5z" fill="#664B42"/><path fill-rule="evenodd" clip-rule="evenodd" d="M23.96 10.905a1 1 0 01.995-.905h3.087a1 1 0 01.996.912l.96 10.794-.996.088L28.042 11h-3.087l-.957 10.047-.996-.094.957-10.048z" fill="#664B42"/><path fill-rule="evenodd" clip-rule="evenodd" d="M9.646 13.83a1 1 0 011.208 0l-.604.797-6.75 5.121V26.5H17v-6.752l-6.75-5.12.604-.797 6.75 5.12a1 1 0 01.396.797V26.5a1 1 0 01-1 1H3.5a1 1 0 01-1-1v-6.752a1 1 0 01.396-.797l6.75-5.12z" fill="#FD9F32"/></svg>