<svg width="33" height="32" fill="none" xmlns="http://www.w3.org/2000/svg"><path fill-rule="evenodd" clip-rule="evenodd" d="M11.5 6h15v16.5A4.5 4.5 0 0122 27H12a.5.5 0 010-1h10a3.5 3.5 0 003.5-3.5V7h-13v13a.5.5 0 01-1 0V6z" fill="#664B42"/><path fill-rule="evenodd" clip-rule="evenodd" d="M8 19.5h14.5v1H9v2.75A2.75 2.75 0 0011.75 26H22a.5.5 0 010 1H11.75A3.75 3.75 0 018 23.25V19.5z" fill="#664B42"/><path fill-rule="evenodd" clip-rule="evenodd" d="M24.5 16.5a.5.5 0 01.5.5v5.5a1.75 1.75 0 11-3.5 0V20h1v2.5a.75.75 0 001.5 0V17a.5.5 0 01.5-.5z" fill="#664B42"/><path d="M3.282 9.78a3.211 3.211 0 001.211 2.255l4.417 3.71a4.468 4.468 0 003.284 1.037l.728-.063-1.098-.922a3.473 3.473 0 01-2.271-.817l-4.428-3.72a2.228 2.228 0 01-.847-1.567 2.253 2.253 0 012.046-2.437 2.242 2.242 0 011.701.572l1.101.924.74 1.709-.102-1.174 2.069 1.736.741 1.711-.102-1.172a3.475 3.475 0 011.209 2.35l.089 1.02-5.033-4.226-.643.766 7.199 6.044.643-.766-1.083-.91-.176-2.015a4.467 4.467 0 00-1.59-3.055L8.679 7.073a3.217 3.217 0 00-2.441-.813 3.254 3.254 0 00-2.956 3.52z" fill="#FD9F32"/></svg>