<svg width="120" height="120" fill="none" xmlns="http://www.w3.org/2000/svg"><path d="M104.705 79.771l-64.086 28.855c-4.087 1.84-8.863-.312-10.631-4.24L5.844 50.764c-1.853-4.118.382-8.45 4.154-10.148l14.495-6.526c-1.76-9.382 3.23-19.333 11.946-23.257 8.715-3.925 19.474-1.064 25.333 6.472l12.312-5.543c3.872-1.744 8.409-.382 10.233 3.67l24.143 53.622c1.927 4.278-.007 9.03-3.755 10.717zM11.765 44.54c-1.834.825-2.76 2.763-1.997 4.457l24.144 53.623c.783 1.741 3.052 2.932 4.94 2.082l64.086-28.854c1.742-.785 2.4-3.247 1.599-5.027L80.393 17.198c-.4-.89-2.148-2.59-4.543-1.513l-13.93 6.272a2.152 2.152 0 01-2.697-.805c-4.331-6.794-13.76-9.664-21.018-6.396-7.257 3.268-11.36 12.23-9.143 19.976a2.154 2.154 0 01-1.186 2.554L11.765 44.54z" fill="#FD9F32"/><path d="M52.273 46.001c-7.896 3.555-17.212.024-20.767-7.872-3.556-7.897-.024-17.214 7.871-20.769 7.898-3.555 17.214-.023 20.77 7.873 3.555 7.896.023 17.213-7.874 20.768zM41.144 21.284c-5.732 2.58-8.296 9.345-5.715 15.078 2.581 5.733 9.345 8.297 15.078 5.716 5.733-2.582 8.297-9.346 5.716-15.078-2.581-5.734-9.345-8.298-15.079-5.716z" fill="#FD9F32"/><path d="M45.14 34.595l-7.566-7.619 9.95 4.037a2.199 2.199 0 011.21 2.86 2.194 2.194 0 01-3.594.722z" fill="#FD9F32"/><path d="M71.032 32.148c-7.155 5.9-15.686 21.804-9.666 29.105 6.02 7.301 23.153 1.83 30.308-4.07 7.156-5.9 16.558-22.308 10.538-29.61-6.02-7.3-24.024-1.325-31.18 4.575z" fill="#F5EFE6"/><path fill-rule="evenodd" clip-rule="evenodd" d="M101.238 42.623c-2.456 5.668-6.534 11.148-10.011 14.016-3.476 2.865-9.437 5.665-15.271 6.838-2.912.586-5.751.758-8.206.354-2.451-.403-4.474-1.37-5.84-3.026-1.365-1.657-1.937-3.836-1.874-6.333.062-2.5.76-5.27 1.877-8.033 2.238-5.536 6.096-10.884 9.569-13.747 3.475-2.866 9.656-5.793 15.715-7.092 3.023-.649 5.974-.882 8.512-.523 2.537.358 4.603 1.299 5.96 2.945 1.357 1.646 1.88 3.845 1.739 6.39-.14 2.547-.944 5.382-2.17 8.212zm3.578-8.133c.153-2.77-.406-5.36-2.059-7.365-1.653-2.004-4.095-3.055-6.85-3.444-2.755-.39-5.882-.13-9.006.54-6.238 1.338-12.636 4.349-16.316 7.383-3.683 3.036-7.668 8.59-9.98 14.307-1.157 2.863-1.911 5.806-1.979 8.526-.068 2.723.552 5.27 2.197 7.265 1.644 1.994 4.02 3.08 6.698 3.52 2.675.44 5.695.244 8.713-.363 6.026-1.212 12.21-4.098 15.89-7.132 3.677-3.033 7.878-8.706 10.408-14.543 1.266-2.923 2.131-5.927 2.284-8.694z" fill="#B69D86"/><path fill-rule="evenodd" clip-rule="evenodd" d="M98.032 31.326a.705.705 0 00-.992-.096l-6.46 5.326a.705.705 0 10.897 1.088l6.46-5.326a.705.705 0 00.095-.992zm-9.689 7.988a.705.705 0 00-.993-.095L67.973 55.196a.705.705 0 10.897 1.088l19.377-15.977a.705.705 0 00.096-.993z" fill="#B69D86"/><path d="M42.591 60.276c-6.422-4.58-21.368-8.089-26.041-1.535-4.674 6.554 3.594 19.426 10.017 24.006 6.422 4.58 21.973 8.693 26.647 2.14 4.673-6.554-4.2-20.031-10.623-24.611z" fill="#F5EFE6"/><path fill-rule="evenodd" clip-rule="evenodd" d="M40.634 87.4c-5.198-.77-10.598-2.915-13.72-5.14-3.12-2.225-6.732-6.507-8.98-11.042-1.122-2.263-1.889-4.558-2.098-6.664-.208-2.103.142-3.978 1.202-5.465 1.06-1.486 2.724-2.435 4.79-2.934 2.067-.499 4.497-.536 7.013-.226 5.041.62 10.285 2.612 13.402 4.835 3.12 2.225 6.885 6.659 9.286 11.35 1.199 2.342 2.04 4.715 2.304 6.88.264 2.162-.054 4.067-1.108 5.545-1.053 1.477-2.745 2.39-4.867 2.836-2.123.445-4.63.409-7.224.024zm7.47 1.148c2.31-.484 4.314-1.513 5.598-3.313 1.282-1.799 1.608-4.037 1.322-6.387-.287-2.349-1.189-4.86-2.427-7.28-2.473-4.83-6.355-9.425-9.658-11.78-3.305-2.357-8.746-4.41-13.951-5.05-2.608-.32-5.192-.292-7.442.252-2.252.543-4.208 1.613-5.485 3.403-1.276 1.79-1.646 3.982-1.418 6.28.228 2.293 1.053 4.731 2.217 7.078 2.322 4.684 6.055 9.129 9.358 11.485 3.301 2.354 8.888 4.556 14.24 5.35 2.68.397 5.339.446 7.646-.038z" fill="#B69D86"/><path fill-rule="evenodd" clip-rule="evenodd" d="M49.21 82.278a.6.6 0 00-.14-.836l-5.797-4.135a.6.6 0 10-.697.977l5.798 4.134a.6.6 0 00.837-.14zm-8.696-6.203a.6.6 0 00-.14-.836L22.981 62.835a.6.6 0 10-.696.977l17.393 12.403a.6.6 0 00.836-.14z" fill="#B69D86"/></svg>