<svg width="120" height="120" fill="none" xmlns="http://www.w3.org/2000/svg"><path d="M31.095 37.05C18.92 42.037.68 60.003 5.771 72.425c5.09 12.421 30.603 12.204 42.777 7.215 12.173-4.989 31.805-23.272 26.715-35.693-5.09-12.422-31.996-11.888-44.17-6.899z" fill="#F5EFE6" stroke="#B69D86" stroke-width="2"/><path d="M66.72 46.73a1 1 0 01.758 1.85l-.759-1.85zm-10.231 6.353a1 1 0 01-.759-1.85l.759 1.85zm10.989-4.503l-10.99 4.503-.758-1.85 10.99-4.504.758 1.851zm-17.244 4.904a1 1 0 01.758 1.85l-.758-1.85zm-32.209 15.36a1 1 0 01-.758-1.85l.758 1.85zm32.968-13.51l-32.968 13.51-.758-1.85 32.967-13.51.758 1.85z" fill="#B69D86"/><g clip-path="url(#clip0_2_1322)"><path d="M33.125 32.222c-14.453 5.922-36.108 27.253-30.064 42 6.043 14.747 36.333 14.489 50.786 8.566C68.3 76.866 91.607 55.16 85.564 40.412c-6.043-14.747-37.986-14.113-52.44-8.19z" fill="#F5EFE6" stroke="#B69D86" stroke-width="2"/><path d="M75.49 43.887a1 1 0 11.76 1.851l-.76-1.85zm-12.287 7.197a1 1 0 01-.759-1.85l.759 1.85zm13.046-5.346l-13.046 5.346-.759-1.85 13.047-5.347.758 1.851zm-20.33 6.169a1 1 0 01.758 1.85l-.758-1.85zm-38.381 17.89a1 1 0 11-.759-1.85l.759 1.85zm39.14-16.04l-39.14 16.04-.759-1.85 39.14-16.04.758 1.85z" fill="#B69D86"/></g><path fill-rule="evenodd" clip-rule="evenodd" d="M71.307 17.483a35.511 35.511 0 00-25.193 10.504 35.983 35.983 0 00-10.436 25.36 35.983 35.983 0 0010.436 25.358A35.511 35.511 0 0071.307 89.21c9.45 0 18.512-3.778 25.193-10.504a35.984 35.984 0 0010.436-25.359A35.984 35.984 0 0096.5 27.987a35.511 35.511 0 00-25.193-10.504zm-28.343 7.334A39.95 39.95 0 0171.308 13 39.95 39.95 0 0199.65 24.817a40.483 40.483 0 0111.739 28.53c0 9.31-3.197 18.29-8.98 25.45-.663.82-.635 2.015.108 2.764l15.73 15.861a2 2 0 01-.003 2.819l-.33.332a2 2 0 01-2.838-.002L99.392 84.754c-.752-.758-1.964-.787-2.79-.11a39.921 39.921 0 01-25.295 9.048 39.95 39.95 0 01-28.343-11.817 40.48 40.48 0 01-11.74-28.529 40.48 40.48 0 0111.74-28.529z" fill="#FD9F32"/><defs><clipPath id="clip0_2_1322"><rect x="33.647" y="17" width="74" height="74" rx="37" fill="#fff"/></clipPath></defs></svg>