<svg width="138" height="149" fill="none" xmlns="http://www.w3.org/2000/svg"><g clip-path="url(#clip0_2_1280)"><path d="M22.263 113.835l103.8-41.861-10.465-25.95-4.866 1.962-3.244 1.308-3.244 1.308-3.243 1.309-3.244 1.308-3.244 1.308-3.244 1.308-3.243 1.308-3.244 1.309-3.244 1.308-3.244 1.308-3.243 1.308-3.244 1.308-3.244 1.308L65.32 66.3l-3.243 1.309-3.244 1.308-3.244 1.308-3.244 1.308-3.243 1.308-3.244 1.309-3.244 1.308-3.244 1.308-3.243 1.308-3.244 1.308-3.244 1.308L26.394 82l-3.243 1.308-3.244 1.308-8.11 3.27 10.466 25.95zm-1.201-26.356l3.233-1.334 1.472 3.65 3.244-1.309-1.462-3.624 3.244-1.308 1.462 3.624 3.243-1.308-1.461-3.624 3.244-1.308 1.461 3.624 3.244-1.309-1.472-3.649 3.244-1.308 1.461 3.624 3.244-1.308-1.461-3.624 3.243-1.308 2.78 6.893 3.244-1.308-2.77-6.868 3.234-1.334 1.461 3.624 3.244-1.308-1.461-3.624 3.243-1.308 1.472 3.65 3.244-1.309-1.462-3.624 3.244-1.308 1.462 3.624 3.243-1.308-1.471-3.65 3.243-1.308 1.462 3.624L80.9 67.53l-1.46-3.624 3.243-1.308 2.78 6.893 3.243-1.308-2.77-6.868 3.234-1.333 1.462 3.623 3.243-1.308-1.46-3.624 3.243-1.308 1.471 3.65 3.244-1.309-1.461-3.624 3.244-1.308 1.461 3.624 3.244-1.308-1.472-3.65 3.244-1.307 1.472 3.649 3.243-1.308-1.461-3.624 2.018-.797 8.136 20.21-98.068 39.55-8.153-20.217 1.998-.81 2.77 6.868 3.243-1.308-2.77-6.867z" fill="#FD9F32"/><path d="M110.105 55.783l3.244-1.308-1.462-3.624-3.243 1.309 1.461 3.623zm-6.487 2.617l3.243-1.308-1.461-3.623-3.243 1.307 1.461 3.624zm-6.485 2.613l3.243-1.308-1.461-3.623-3.244 1.308 1.462 3.623zm-6.489 2.617l3.244-1.308-1.462-3.623-3.243 1.308 1.461 3.623zm-5.18 5.862l3.243-1.308-2.77-6.867-3.243 1.308 2.77 6.867zm-7.795-.628l3.243-1.308-1.461-3.623-3.243 1.308 1.46 3.623zm-6.488 2.617l3.244-1.308-1.461-3.623-3.244 1.308 1.461 3.623zm-6.488 2.617l3.243-1.308-1.46-3.623-3.244 1.308 1.461 3.623zm-6.486 2.614l3.243-1.308-1.461-3.624-3.243 1.308 1.46 3.624zm-5.181 5.861l3.243-1.307-2.769-6.867-3.243 1.308 2.77 6.867zm-7.796-.627l3.244-1.308-1.462-3.624-3.243 1.309 1.461 3.623zm-6.487 2.617l3.243-1.308-1.46-3.623-3.244 1.307 1.46 3.624zm-6.488 2.617l3.243-1.308-1.461-3.623-3.244 1.308 1.462 3.623zm-6.485 2.613l3.243-1.308-1.462-3.623-3.243 1.308 1.461 3.623zm-5.182 5.862l3.243-1.308-2.77-6.867-3.243 1.308 2.77 6.867z" fill="#FFF176"/><path d="M110.108 55.78l3.244-1.308-2.617-6.487-3.243 1.308 2.616 6.487zM101 51.91l3.244-1.307 2.616 6.487-3.243 1.308-1.462-3.624L101 51.911zm-6.487 2.617l3.244-1.308 1.155 2.864 1.461 3.623-3.244 1.308-2.616-6.487zm-3.868 9.104l3.244-1.308-2.616-6.487-3.244 1.308 2.616 6.487zm-5.179 5.862l3.243-1.308-3.924-9.73-3.243 1.308 3.924 9.73zm-7.794-.631l3.243-1.308-2.616-6.487-3.243 1.308 2.616 6.487zm-9.109-3.869l3.243-1.309 2.617 6.488-3.244 1.308-1.461-3.624-1.155-2.863zm-6.488 2.616L65.32 66.3l1.155 2.863 1.462 3.624-3.244 1.308-2.616-6.487zm-3.867 9.104l3.243-1.308-2.616-6.487-3.243 1.308 2.616 6.487zm-5.182 5.861l3.243-1.308-3.924-9.73-3.243 1.308 3.924 9.73zm-7.794-.627l3.244-1.308-2.617-6.487-3.243 1.308 2.616 6.487zm-9.107-3.873l3.244-1.308 2.616 6.488-3.243 1.308-1.462-3.624-1.155-2.864zm-6.487 2.616l3.244-1.308 1.155 2.864 1.461 3.624-3.244 1.308-2.616-6.487zm-3.868 9.104l3.243-1.308L26.397 82l-3.244 1.309 2.616 6.486zm-5.18 5.862l3.243-1.308-3.924-9.73-3.243 1.308 3.924 9.73z" fill="#FD9F32"/></g><path d="M31.429 28.336c-10.15 8.37-22.253 30.931-13.713 41.288 8.54 10.358 32.845 2.596 42.995-5.773C70.861 55.48 84.2 32.204 75.66 21.847c-8.54-10.358-34.08-1.881-44.231 6.488z" fill="#F5EFE6" stroke="#B69D86" stroke-width="2"/><path d="M68.322 27.034a1 1 0 011.272 1.543l-1.272-1.543zm-7.89 9.099a1 1 0 11-1.273-1.544l1.273 1.544zm9.162-7.556l-9.162 7.555-1.273-1.543 9.163-7.555 1.272 1.543zm-15.018 9.79a1 1 0 011.273 1.543l-1.273-1.543zM28.36 62.575a1 1 0 11-1.273-1.543l1.273 1.543zM55.849 39.91l-27.49 22.665-1.272-1.543 27.49-22.665 1.272 1.543z" fill="#B69D86"/><defs><clipPath id="clip0_2_1280"><path transform="rotate(-156.964 96.728 148.859)" fill="#fff" d="M96.728 148.859h105.11v105.11H96.728z"/></clipPath></defs></svg>