<svg width="22" height="22" fill="none" xmlns="http://www.w3.org/2000/svg"><path d="M16.5 8.938h-1.375a2.064 2.064 0 00-2.063-2.063V5.5A3.442 3.442 0 0116.5 8.938z" fill="#664B42"/><path d="M19.25 8.938h-1.375a4.818 4.818 0 00-4.813-4.813V2.75a6.194 6.194 0 016.188 6.188zm-1.375 11h-.117C4.248 19.16 2.331 7.761 2.062 4.283a2.063 2.063 0 012.063-2.22h3.623a1.375 1.375 0 011.279.866L10.072 5.5a1.374 1.374 0 01-.303 1.485L8.305 8.463a6.435 6.435 0 005.211 5.225l1.492-1.478a1.374 1.374 0 011.492-.282l2.592 1.038a1.375 1.375 0 01.846 1.279v3.63a2.062 2.062 0 01-2.063 2.063zm-13.75-16.5a.688.688 0 00-.688.742c.317 4.07 2.345 13.695 14.397 14.383a.688.688 0 00.727-.645l.002-.043v-3.63l-2.592-1.038-1.973 1.96-.33-.042c-5.982-.75-6.793-6.73-6.793-6.793l-.041-.33L8.786 6.03 7.755 3.438h-3.63z" fill="#664B42"/></svg>