<svg width="53" height="54" fill="none" xmlns="http://www.w3.org/2000/svg"><path d="M8.896 16.304c-.834-5.333.11-7.359 4.472-10.535C16.107 3.775 19.46 1 23.052 1c6.219 0-4.32 37.464-5.599 41.533-1.001 3.184-2.955 11.95-8.1 10.25-5.259-1.737-7.812-7.38-8.275-12.527-1.124-12.49 10.144-25.228 21.904-28.01 6.836-1.616 6.34 7.025 6.057 11.532-.143 2.272-1.75 8.58.352 3.416 1.632-4.01 3.45-8.927 6.128-12.385 2.422-3.128 3.464 1.094 4.296 2.776.492.994 10.86-4.61 12.185-5.125" stroke="#50220F" stroke-width="2" stroke-linecap="round"/></svg>