<svg width="33" height="32" viewBox="0 0 33 32" fill="none" xmlns="http://www.w3.org/2000/svg">
<path d="M18.901 18.7605C18.0307 18.7605 17.18 18.5153 16.4563 18.056C15.7327 17.5966 15.1687 16.9438 14.8357 16.1799C14.5026 15.4161 14.4155 14.5756 14.5853 13.7647C14.7551 12.9538 15.1741 12.2089 15.7895 11.6243C16.4049 11.0397 17.189 10.6415 18.0426 10.4802C18.8961 10.3189 19.7809 10.4017 20.5849 10.7181C21.389 11.0345 22.0762 11.5703 22.5597 12.2577C23.0432 12.9452 23.3013 13.7534 23.3013 14.5802C23.3013 15.6889 22.8377 16.7521 22.0125 17.5361C21.1873 18.3201 20.0681 18.7605 18.901 18.7605ZM18.901 11.7933C18.3208 11.7933 17.7537 11.9568 17.2712 12.263C16.7888 12.5692 16.4128 13.0045 16.1908 13.5137C15.9688 14.0229 15.9107 14.5833 16.0239 15.1239C16.137 15.6645 16.4164 16.161 16.8267 16.5508C17.237 16.9405 17.7597 17.206 18.3287 17.3135C18.8978 17.421 19.4876 17.3658 20.0236 17.1549C20.5597 16.944 21.0178 16.5868 21.3402 16.1285C21.6625 15.6702 21.8346 15.1314 21.8346 14.5802C21.8346 13.8411 21.5255 13.1322 20.9753 12.6096C20.4252 12.0869 19.679 11.7933 18.901 11.7933Z" fill="#664B42"/>
<path fill-rule="evenodd" clip-rule="evenodd" d="M4.38005 24.1791L7.4374 20.2535L9.01162 22.1443L11.2478 19.2641L14.9408 24.188V18.321H4.38005V24.1791ZM3.73738 25.3615C3.69662 25.2914 3.66056 25.2183 3.62964 25.1427C3.54609 24.9382 3.49999 24.7149 3.49999 24.4814V17.4409H15.8208V26.2415H5.26011C4.61205 26.2415 4.04286 25.8866 3.73738 25.3615ZM9.03557 23.5485L7.46026 21.6564L5.26011 24.4814H14.0607L11.2357 20.7147L9.03557 23.5485Z" fill="#FD9F32"/>
<path fill-rule="evenodd" clip-rule="evenodd" d="M15.8209 21.8411H28.2989C28.4906 21.8411 28.6745 21.765 28.81 21.6301C28.9456 21.4952 29.0218 21.3121 29.0218 21.1209V8.88039C29.0218 8.68917 28.9456 8.50611 28.81 8.37118C28.6745 8.23582 28.4906 8.16019 28.2989 8.16019H23.6289L22.3928 6.32401C22.3272 6.22517 22.2382 6.14353 22.1335 6.08723C22.0289 6.03051 21.9118 6.00043 21.7928 6H16.0094C15.8904 6.00043 15.7733 6.03051 15.6687 6.08723C15.564 6.14353 15.475 6.22517 15.4094 6.32401L14.1732 8.16019H9.50329C9.39167 8.16019 9.28274 8.18554 9.18444 8.23367C9.11386 8.26847 9.04876 8.31445 8.99214 8.37118C8.85657 8.50611 8.7804 8.68917 8.7804 8.88039V17.4408H10.2262V9.60017H14.5636C14.6827 9.59974 14.7998 9.56966 14.9045 9.51336C15.0091 9.45664 15.0982 9.37543 15.1636 9.27616L16.3998 7.43998H21.4024L22.6386 9.27616C22.704 9.37543 22.793 9.45664 22.8977 9.51336C22.9742 9.55462 23.0572 9.58169 23.1429 9.59372C23.1745 9.59802 23.2064 9.60017 23.2385 9.60017H27.576V20.4011H15.8209V21.8411Z" fill="#664B42"/>
</svg>
