<svg width="20" height="20" viewBox="0 0 20 20" fill="none" xmlns="http://www.w3.org/2000/svg">
<circle cx="10" cy="10" r="10" fill="#FD9F32"/>
<path d="M10.0027 15.14C8.8454 15.14 7.95407 14.7013 7.32873 13.824C6.7034 12.9373 6.39073 11.6773 6.39073 10.044C6.39073 8.392 6.7034 7.13667 7.32873 6.278C7.95407 5.41933 8.8454 4.99 10.0027 4.99C11.1694 4.99 12.0607 5.41933 12.6767 6.278C13.3021 7.13667 13.6147 8.38733 13.6147 10.03C13.6147 11.6727 13.3021 12.9373 12.6767 13.824C12.0607 14.7013 11.1694 15.14 10.0027 15.14ZM10.0027 13.656C10.6374 13.656 11.1087 13.3667 11.4167 12.788C11.7247 12.2 11.8787 11.2807 11.8787 10.03C11.8787 8.77933 11.7247 7.874 11.4167 7.314C11.1087 6.74467 10.6374 6.46 10.0027 6.46C9.3774 6.46 8.90607 6.74467 8.58873 7.314C8.28073 7.874 8.12673 8.77933 8.12673 10.03C8.12673 11.2807 8.28073 12.2 8.58873 12.788C8.90607 13.3667 9.3774 13.656 10.0027 13.656Z" fill="#664B42"/>
</svg>
