<svg width="33" height="32" viewBox="0 0 33 32" fill="none" xmlns="http://www.w3.org/2000/svg">
<path fill-rule="evenodd" clip-rule="evenodd" d="M7 5.42593C7 5.19069 7.19631 5 7.43846 5H10.5V5.85185H7.87692V26.4383C7.87692 26.6265 7.95391 26.8071 8.09096 26.9402C8.22801 27.0734 8.41388 27.1481 8.60769 27.1481H24.3923C24.5861 27.1481 24.772 27.0734 24.909 26.9402C25.0461 26.8071 25.1231 26.6265 25.1231 26.4383V5.85185H16.75V5H25.5615C25.8037 5 26 5.19069 26 5.42593V26.4383C26 26.8525 25.8306 27.2497 25.5291 27.5426C25.2276 27.8355 24.8187 28 24.3923 28H8.60769C8.18131 28 7.77238 27.8355 7.47088 27.5426C7.16938 27.2497 7 26.8525 7 26.4383V5.42593Z" fill="#664B42"/>
<path fill-rule="evenodd" clip-rule="evenodd" d="M10.5479 4.58444C10.6825 4.44824 10.8651 4.37169 11.0555 4.37162H15.75C15.7881 4.37162 15.8246 4.38693 15.8516 4.41417C15.8785 4.44141 15.8936 4.47836 15.8936 4.51689V17.9918L13.7568 15.8303C13.676 15.7486 13.5664 15.7027 13.4521 15.7027C13.3379 15.7027 13.2283 15.7486 13.1475 15.8303L11.0106 17.9918V5.09797C11.0106 4.85728 10.8178 4.66216 10.5798 4.66216H10.471L10.5479 4.58444ZM16.4609 3.79784C16.6494 3.98855 16.7553 4.2472 16.7553 4.51689V7.85811V8.72973V11.9257V12.7973V15.9932V16.8649V19.0439C16.7553 19.2202 16.6504 19.3791 16.4894 19.4466C16.3284 19.514 16.143 19.4767 16.0198 19.3521L13.4521 16.7548L10.8845 19.3521C10.7612 19.4767 10.5759 19.514 10.4149 19.4466C10.2539 19.3791 10.1489 19.2202 10.1489 19.0439V5.53378H9.43086C9.2566 5.53378 9.0995 5.4276 9.03281 5.26475C8.96612 5.1019 9.00298 4.91445 9.12621 4.78981L9.9385 3.96816C10.2347 3.66849 10.6365 3.50009 11.0555 3.5H15.75C16.0166 3.5 16.2723 3.60714 16.4609 3.79784ZM11.0555 4.37162C10.8651 4.37169 10.6825 4.44824 10.5479 4.58444L10.471 4.66216H10.5798C10.8178 4.66216 11.0106 4.85728 11.0106 5.09797V17.9918L13.1475 15.8303C13.2283 15.7486 13.3379 15.7027 13.4521 15.7027C13.5664 15.7027 13.676 15.7486 13.7568 15.8303L15.8936 17.9918V4.51689C15.8936 4.47836 15.8785 4.44141 15.8516 4.41417C15.8246 4.38693 15.7881 4.37162 15.75 4.37162H11.0555C11.0554 4.37162 11.0555 4.37162 11.0555 4.37162ZM16.7553 7.85811V4.51689C16.7553 4.2472 16.6494 3.98855 16.4609 3.79784C16.2723 3.60714 16.0166 3.5 15.75 3.5H11.0555C10.6365 3.50009 10.2347 3.66849 9.9385 3.96816C9.93852 3.96814 9.93849 3.96818 9.9385 3.96816L9.12621 4.78981C9.00298 4.91445 8.96612 5.1019 9.03281 5.26475C9.0995 5.4276 9.2566 5.53378 9.43086 5.53378H10.1489V19.0439C10.1489 19.2202 10.2539 19.3791 10.4149 19.4466C10.5759 19.514 10.7612 19.4767 10.8845 19.3521L13.4521 16.7548L16.0198 19.3521C16.143 19.4767 16.3284 19.514 16.4894 19.4466C16.6504 19.3791 16.7553 19.2202 16.7553 19.0439V16.8649H22.0691C22.3071 16.8649 22.5 16.6697 22.5 16.4291C22.5 16.1884 22.3071 15.9932 22.0691 15.9932H16.7553V12.7973H22.0691C22.3071 12.7973 22.5 12.6022 22.5 12.3615C22.5 12.1208 22.3071 11.9257 22.0691 11.9257H16.7553V8.72973H22.0691C22.3071 8.72973 22.5 8.53461 22.5 8.29392C22.5 8.05323 22.3071 7.85811 22.0691 7.85811H16.7553ZM10.1489 20.4966C10.1489 20.2559 10.3418 20.0608 10.5798 20.0608H22.0691C22.3071 20.0608 22.5 20.2559 22.5 20.4966C22.5 20.7373 22.3071 20.9324 22.0691 20.9324H10.5798C10.3418 20.9324 10.1489 20.7373 10.1489 20.4966ZM10.1489 24.5642C10.1489 24.3235 10.3418 24.1284 10.5798 24.1284H22.0691C22.3071 24.1284 22.5 24.3235 22.5 24.5642C22.5 24.8049 22.3071 25 22.0691 25H10.5798C10.3418 25 10.1489 24.8049 10.1489 24.5642Z" fill="#664B42"/>
<path fill-rule="evenodd" clip-rule="evenodd" d="M10.5967 4.58582C10.7356 4.44944 10.9239 4.37279 11.1203 4.37273H15.963C16.0023 4.37273 16.0399 4.38805 16.0677 4.41533C16.0955 4.44261 16.1111 4.4796 16.1111 4.51818V18.0101L13.9069 15.846C13.8235 15.7641 13.7105 15.7182 13.5926 15.7182C13.4747 15.7182 13.3617 15.7641 13.2783 15.846L11.0741 18.0101V5.1C11.0741 4.859 10.8751 4.66364 10.6296 4.66364H10.5174L10.5967 4.58582ZM16.6963 3.79822C16.8907 3.98917 17 4.24814 17 4.51818V7.86363V8.73636V11.9364V12.8091V16.0091V16.8818V19.0636C17 19.2401 16.8917 19.3992 16.7256 19.4668C16.5596 19.5343 16.3684 19.497 16.2413 19.3722L13.5926 16.7716L10.9439 19.3722C10.8168 19.497 10.6256 19.5343 10.4596 19.4668C10.2935 19.3992 10.1852 19.2401 10.1852 19.0636V5.53636H9.44446C9.2647 5.53636 9.10264 5.43005 9.03384 5.26699C8.96505 5.10393 9.00308 4.91624 9.13019 4.79144L9.96811 3.96875C10.2737 3.6687 10.6882 3.50009 11.1203 3.5H15.963C16.238 3.5 16.5018 3.60727 16.6963 3.79822Z" fill="#FD9F32"/>
</svg>
