<svg width="33" height="32" viewBox="0 0 33 32" fill="none" xmlns="http://www.w3.org/2000/svg">
<path fill-rule="evenodd" clip-rule="evenodd" d="M8 22.5C8 21.9477 8.44772 21.5 9 21.5H12C12.5523 21.5 13 21.9477 13 22.5V27H12V22.5L9 22.5V27H8V22.5Z" fill="#FD9F32"/>
<path fill-rule="evenodd" clip-rule="evenodd" d="M14.4717 5.43762C14.5046 4.91059 14.9417 4.5 15.4697 4.5H20.0375C20.5596 4.5 20.9938 4.90162 21.0345 5.42211L22.2485 20.9611L21.2515 21.0389L20.0375 5.5L15.4697 5.5L14.749 17.0312L13.751 16.9688L14.4717 5.43762Z" fill="#664B42"/>
<path fill-rule="evenodd" clip-rule="evenodd" d="M29 21.5H17.5V20.5H29C29.5523 20.5 30 20.9477 30 21.5V26.5C30 27.0523 29.5523 27.5 29 27.5H16V26.5H29V21.5Z" fill="#664B42"/>
<path fill-rule="evenodd" clip-rule="evenodd" d="M23.9591 10.9052C24.008 10.392 24.439 10 24.9546 10H28.0424C28.5604 10 28.9926 10.3955 29.0385 10.9115L29.998 21.7057L29.0019 21.7943L28.0424 11L24.9546 11L23.9977 21.0474L23.0022 20.9526L23.9591 10.9052Z" fill="#664B42"/>
<path fill-rule="evenodd" clip-rule="evenodd" d="M9.64561 13.8307C10.0029 13.5597 10.4971 13.5597 10.8544 13.8308L10.25 14.6274L3.5 19.7481L3.5 26.4998H17V19.7481L10.25 14.6274L10.8544 13.8308L17.6044 18.9514C17.8536 19.1405 18 19.4353 18 19.7481V26.4998C18 27.0521 17.5523 27.4998 17 27.4998H3.5C2.94772 27.4998 2.5 27.0521 2.5 26.4998V19.7481C2.5 19.4353 2.64639 19.1405 2.89561 18.9514L9.64561 13.8307Z" fill="#FD9F32"/>
</svg>
