<svg width="33" height="32" viewBox="0 0 33 32" fill="none" xmlns="http://www.w3.org/2000/svg">
<path fill-rule="evenodd" clip-rule="evenodd" d="M11.5 6H26.5V22.5C26.5 24.9853 24.4853 27 22 27H12C11.7239 27 11.5 26.7761 11.5 26.5C11.5 26.2239 11.7239 26 12 26H22C23.933 26 25.5 24.433 25.5 22.5V7H12.5V20C12.5 20.2761 12.2761 20.5 12 20.5C11.7239 20.5 11.5 20.2761 11.5 20V6Z" fill="#664B42"/>
<path fill-rule="evenodd" clip-rule="evenodd" d="M8 19.5H22.5V20.5H9V23.25C9 24.7688 10.2312 26 11.75 26H22C22.2761 26 22.5 26.2239 22.5 26.5C22.5 26.7761 22.2761 27 22 27H11.75C9.67893 27 8 25.3211 8 23.25V19.5Z" fill="#664B42"/>
<path fill-rule="evenodd" clip-rule="evenodd" d="M24.5 16.5C24.7761 16.5 25 16.7239 25 17V22.5C25 23.4665 24.2165 24.25 23.25 24.25C22.2835 24.25 21.5 23.4665 21.5 22.5V20H22.5V22.5C22.5 22.9142 22.8358 23.25 23.25 23.25C23.6642 23.25 24 22.9142 24 22.5V17C24 16.7239 24.2239 16.5 24.5 16.5Z" fill="#664B42"/>
<path d="M3.28226 9.78016C3.36054 10.6777 3.79477 11.4816 4.49349 12.035L8.90971 15.7454C9.82985 16.5184 10.9959 16.8869 12.1939 16.7824L12.9216 16.7189L11.8237 15.7971C10.9931 15.8033 10.1955 15.5193 9.55264 14.9796L5.12487 11.2604C4.63265 10.8707 4.33261 10.3139 4.27848 9.69327C4.1707 8.45746 5.08868 7.36407 6.32449 7.2563C6.94513 7.20217 7.54476 7.4016 8.02516 7.82848L9.12616 8.75194L9.86628 10.4607L9.76396 9.28741L11.8328 11.0234L12.574 12.734L12.4718 11.5617C13.1705 12.1611 13.6004 12.9931 13.6806 13.9119L13.7695 14.9315L8.73686 10.7062L8.09393 11.472L15.2927 17.5159L15.9357 16.7501L14.8526 15.8408L14.6768 13.825C14.5723 12.6275 14.0081 11.5423 13.087 10.7699L8.67875 7.07254C8.00185 6.47008 7.1352 6.1818 6.2376 6.26008C4.45238 6.41577 3.12657 7.99493 3.28226 9.78016Z" fill="#FD9F32"/>
</svg>
